<svg width="48" height="48" viewBox="0 0 48 48" fill="none" xmlns="http://www.w3.org/2000/svg">
<path d="M6.92496 31.4344H5.55742C3.99743 31.4344 3.038 29.7278 3.84869 28.395L12.269 14.5515C13.0481 13.2708 14.9072 13.2706 15.6864 14.5513L16.3711 15.6768M27.4061 31.0542C27.4061 31.8854 26.7124 32.5594 25.857 32.5594C25.0016 32.5594 24.3073 31.8854 24.3073 31.0542C24.3073 30.2229 25.0016 29.5483 25.857 29.5483C26.7124 29.5483 27.4061 30.2229 27.4061 31.0542ZM27.7851 18.0341L27.4041 25.0714C27.3596 25.8934 26.6801 26.5371 25.8569 26.5371V26.5371C25.0337 26.5371 24.3542 25.8934 24.3097 25.0714L23.9287 18.0341C23.8688 16.9282 24.7494 15.9986 25.8569 15.9986V15.9986C26.9644 15.9986 27.845 16.9282 27.7851 18.0341ZM40.6641 37.5597H11.0487C8.70873 37.5597 7.2696 34.9999 8.48558 33.0007L23.2936 8.65459C24.4622 6.7332 27.2513 6.73323 28.4199 8.65465L43.2273 33.0007C44.4432 35 43.004 37.5597 40.6641 37.5597Z" stroke="#FF7800" stroke-width="1.2" stroke-linecap="round" stroke-linejoin="round"/>
</svg>
