<svg width="80" height="80" viewBox="0 0 80 80" fill="none" xmlns="http://www.w3.org/2000/svg">
<path d="M40.75 63.6C42.5167 64.7667 44.35 65.8833 46.25 66.95C46.7167 67.15 47.3 67.25 48 67.25C48.5667 67.25 49.0667 67.15 49.5 66.95C60.6 60.85 67.5167 53.8167 70.25 45.85C71.15 42.35 71.6 38.85 71.6 35.35V24.75C71.6 23.3167 71.15 22.0667 70.25 21C69.4167 19.8667 68.1667 19.0333 66.5 18.5L51.35 14.1C49.5833 13.5333 48.4667 13.25 48 13.25C47.3333 13.25 46.15 13.5333 44.45 14.1L29.45 18.5C27.7833 19.0333 26.4667 19.8667 25.5 21C24.7333 22.0333 24.35 23.2833 24.35 24.75V28.35M33.1 36.35L33.35 35.5C33.3833 35.3 33.3833 35.1333 33.35 35C33.3167 34.7333 33.1833 34.5167 32.95 34.35C32.65 34.1833 32.3667 34.15 32.1 34.25C31.9667 34.25 31.85 34.3333 31.75 34.5L30.85 35.25M33.1 36.35C34.3333 37.1167 35.3667 37.95 36.2 38.85C36.8333 39.4833 37.35 40.0667 37.75 40.6M33.1 36.35C32.1667 35.7833 31.4167 35.4167 30.85 35.25M37.75 40.6L40.25 40.2C40.5387 40.2 40.8118 40.1779 41.1 40.25C41.5 40.35 41.8333 40.6333 42.1 41.1C42.3 41.5333 42.3333 41.9833 42.2 42.45C42.0667 42.75 41.9 42.9667 41.7 43.1L40 44.6M37.75 40.6L37.25 40.7L36.6 40.95C35.9667 41.2833 35.55 41.7833 35.35 42.45C35.0833 43.15 35.1167 43.7833 35.45 44.35C35.75 44.9833 36.25 45.4 36.95 45.6C37.5833 45.8333 38.2167 45.8 38.85 45.5L39.5 45.1L40 44.6M40 44.6C40.6667 46.4 41 48.2833 41 50.25V51M41 51L43.35 52.35L43.85 52.85C44.0167 53.1167 44.0667 53.4167 44 53.75C43.8667 54.0833 43.65 54.3667 43.35 54.6C43.1167 54.7 42.9167 54.75 42.75 54.75H40.35M41 51C40.9 52.3667 40.6833 53.6167 40.35 54.75M40.35 54.75C39.85 56.6167 39.05 58.2833 37.95 59.75M37.95 59.75L38.5 60.7C38.6333 60.8333 38.7 61 38.7 61.2C38.7 61.5 38.6333 61.7167 38.5 61.85C38.3 62.05 38.05 62.1833 37.75 62.25L36.25 61.75M37.95 59.75C37.45 60.45 36.8833 61.1167 36.25 61.75M36.25 61.75H36.2C34.6667 63.2833 33.0167 64.45 31.25 65.25M31.25 65.25V65.35C31.25 65.5833 31.1667 65.8333 31 66.1C30.8 66.5667 30.4667 66.8667 30 67C29.5 67.1 29.0333 67.05 28.6 66.85C28.4 66.75 28.2333 66.55 28.1 66.25L28 66.2M31.25 65.25L31.2 62.25L31.1 61.6C30.9 60.9333 30.4833 60.4333 29.85 60.1C29.2167 59.7333 28.5833 59.65 27.95 59.85C27.25 60.05 26.75 60.4333 26.45 61C26.0833 61.7 26 62.3667 26.2 63C26.2667 63.2667 26.3667 63.5 26.5 63.7L28 66.2M28 66.2C26.6 66.4 25.5 66.5 24.7 66.5C22.2 66.5 19.8333 65.9833 17.6 64.95M17.6 64.95L16.5 66.1L15.95 66.35C15.6166 66.45 15.2833 66.4167 14.95 66.25C14.7166 66.1167 14.5167 65.8667 14.35 65.5C14.3167 65.2667 14.3167 65.0167 14.35 64.75L14.75 63.25M17.6 64.95C16.7 64.4833 15.75 63.9167 14.75 63.25M14.75 63.25L13.25 61.75C11.4167 59.95 10.1167 57.9 9.34999 55.6M9.34999 55.6H9.09999C8.83333 55.6333 8.54999 55.6 8.24999 55.5C7.81665 55.2333 7.54998 54.9 7.44998 54.5C7.31665 54 7.36666 53.5333 7.59999 53.1C7.79999 52.8 7.99998 52.6 8.19998 52.5L8.49999 52.25M9.34999 55.6H12.85C13.5167 55.3333 14.0167 54.9167 14.35 54.35C14.65 53.7167 14.7333 53.0833 14.6 52.45C14.4 51.7167 13.9833 51.1833 13.35 50.85C12.6833 50.55 12.05 50.4667 11.45 50.6L8.49999 52.25M8.49999 52.25L8.44998 50.25C8.44998 48.1167 8.79999 46.1167 9.49999 44.25M9.49999 44.25L8.44998 43.35C8.28332 43.25 8.13332 43.0833 7.99999 42.85C7.89999 42.4833 7.89999 42.15 7.99999 41.85C8.16665 41.45 8.41665 41.2333 8.74999 41.2C8.98332 41.1 9.18333 41.0667 9.34999 41.1L11.1 41.25M9.49999 44.25C9.89999 43.35 10.4333 42.35 11.1 41.25M11.1 41.25C11.8 40.35 12.5167 39.55 13.25 38.85C13.8833 38.1833 14.5 37.6333 15.1 37.2M15.1 37.2L15 36.85C14.9333 36.4833 14.9333 36.2 15 36C15.1 35.5333 15.35 35.2 15.75 35C16.2167 34.7 16.6667 34.6167 17.1 34.75C17.4333 34.8167 17.6833 34.9333 17.85 35.1L18.2 35.35M15.1 37.2L15.85 39.85L16.1 40.45C16.5333 41.05 17.0833 41.4 17.75 41.5C18.4167 41.7 19.0667 41.6167 19.7 41.25C20.3 40.8167 20.6833 40.2667 20.85 39.6C20.9833 39 20.8667 38.3833 20.5 37.75L20.1 37.2L18.2 35.35M18.2 35.35C19.4333 34.8167 20.8667 34.45 22.5 34.25M22.5 34.25V34L23.1 31.85C23.1667 31.6167 23.3 31.4167 23.5 31.25C23.7667 31.0833 24.05 31 24.35 31C24.7167 31 25.0167 31.0833 25.25 31.25L25.6 31.85L26.2 34L26.25 34.1M22.5 34.25C23 34.15 23.7333 34.1 24.7 34.1H26.25M26.25 34.1C27.95 34.2667 29.4833 34.65 30.85 35.25M30.1 49.85C30.1 50.6167 29.8167 51.2833 29.25 51.85C28.7167 52.35 28.05 52.6 27.25 52.6C26.4833 52.6 25.8167 52.35 25.25 51.85C24.65 51.3167 24.35 50.65 24.35 49.85C24.35 49.0167 24.65 48.35 25.25 47.85C25.8167 47.2833 26.4833 47 27.25 47C28.0167 47 28.6833 47.2833 29.25 47.85C29.8167 48.35 30.1 49.0167 30.1 49.85Z" stroke="#FF7800" stroke-width="1.5" stroke-linecap="round" stroke-linejoin="round"/>
</svg>
