<svg width="80" height="80" viewBox="0 0 80 80" fill="none" xmlns="http://www.w3.org/2000/svg">
<path d="M12.2 47.04H19.55M25.1999 47.04H38.15M5.94995 25.99V23.04C5.94995 19.174 9.08396 16.04 12.9499 16.04L53.6999 16.04C57.5659 16.04 60.6999 19.174 60.6999 23.04V25.99M5.94995 25.99H60.6999M5.94995 25.99V35.14M60.6999 25.99V35.14H5.94995M5.94995 35.14L5.94993 51.39C5.94992 55.256 9.08394 58.39 12.9499 58.39L45.3 58.39M54.8683 52.9767L58.0679 56.0217C58.6448 56.5706 59.55 56.5732 60.1299 56.0275L66.535 50.0002M46.6849 50.5918C46.703 48.1934 46.6849 44.7962 46.6849 44.7683C46.6849 42.7607 47.9013 41.2399 49.675 40.7753C50.8492 40.4677 58.7277 38.0981 58.7277 38.0981C60.1698 37.671 61.2293 37.6862 62.6756 38.0981C62.6756 38.0981 70.5541 40.4677 71.7283 40.7753C73.502 41.2399 74.7184 42.7607 74.7184 44.7683C74.7184 44.7962 74.7003 48.1934 74.7184 50.5918C74.7184 60.8342 69.3707 65.5779 61.6606 69.7785C61.0718 70.0784 60.3314 70.0784 59.7427 69.7785C52.0326 65.5779 46.6849 60.8342 46.6849 50.5918Z" stroke="#FF7800" stroke-width="1.5" stroke-linecap="round" stroke-linejoin="round"/>
</svg>
