<svg width="80" height="80" viewBox="0 0 80 80" fill="none" xmlns="http://www.w3.org/2000/svg">
<path d="M43.7999 64.85V69.05M43.7999 69.05C47.4999 69.4167 50.9 70.25 54 71.55M43.7999 69.05C41.3201 68.7494 38.7294 68.7401 36.25 69.05M36.2 64.85L36.25 69.05M36.25 69.05C32.5167 69.4167 29.1 70.25 26 71.55M40 12.3C40.9723 12.3 41.75 13.1481 41.75 14.1C41.75 15.0374 40.9461 15.85 40 15.85C39.0492 15.85 38.25 15.0468 38.25 14.1C38.25 13.1385 39.023 12.3 40 12.3ZM54.9 34.95C54.9 26.8224 48.1775 20.1 40.0499 20.1C31.9381 20.1 25.15 26.8177 25.15 34.95C25.15 43.0812 31.9072 49.9 40.0499 49.9C48.2084 49.9 54.9 43.0763 54.9 34.95ZM67 35C67 20.2099 54.7852 8 40 8C25.2193 8 13 20.2193 13 35C13 49.7852 25.2099 62 40 62C54.7945 62 67 49.7945 67 35ZM40.1 40.95C43.3491 40.95 45.95 38.2826 45.95 35.05C45.95 31.8364 43.3136 29.2 40.1 29.2C36.8675 29.2 34.2 31.8009 34.2 35.05C34.2 38.3183 36.8317 40.95 40.1 40.95Z" stroke="#FF7800" stroke-width="1.5" stroke-linecap="round" stroke-linejoin="round"/>
</svg>
