<svg width="80" height="80" viewBox="0 0 80 80" fill="none" xmlns="http://www.w3.org/2000/svg">
<path d="M18.25 38.7001H15.5913C14.7299 38.7001 13.9101 39.0704 13.3406 39.7166L6.56 47.4108M30.25 62.7501V52.0001M25.45 58.5001V52.0001M20.5 40.3501V16.3501C20.5 14.141 22.2909 12.3501 24.5 12.3501L51.85 12.3501M51.85 12.3501L59.45 20.0001M51.85 12.3501V17.2001C51.85 18.7465 53.1036 20.0001 54.65 20.0001H59.45M59.45 20.0001V40.3501M61.75 38.7001H64.302C65.1552 38.7001 65.9681 39.0634 66.5372 39.6991L73.44 47.41M40 58.5001V52.0001M44.85 62.7501V52.0001M54.6 58.5001V52.0001M64.25 42.4501H15.7M20.5 66.8501V52.0001M59.45 52.0001V66.8501M35.1 66.8501V52.0001M49.75 52.0001V66.8501M71.675 51.2501H8.32501C7.04096 51.2501 6.00002 50.2092 6.00001 48.9251V48.9251C6.00001 47.641 7.04095 46.6001 8.32501 46.6001H71.675C72.9591 46.6001 74 47.641 74 48.9251V48.9251C74 50.2092 72.9591 51.2501 71.675 51.2501Z" stroke="#FF7800" stroke-width="1.5" stroke-linecap="round" stroke-linejoin="round"/>
</svg>
