<svg width="40" height="40" viewBox="0 0 40 40" fill="none" xmlns="http://www.w3.org/2000/svg">
<rect y="0.00195312" width="40" height="40" rx="9" fill="#FF7800"/>
<path d="M9.54981 17.6358C9.53638 19.4151 9.79684 21.1193 10.1807 22.4978C11.325 26.607 14.9305 29.4652 18.5719 31.498C19.4596 31.9936 20.5401 31.9936 21.4279 31.498C25.0693 29.4652 28.6747 26.607 29.819 22.4978C30.2029 21.1193 30.4634 19.4151 30.4499 17.6358C30.4393 16.2206 30.4423 14.8053 30.4458 13.39C30.4494 11.9819 29.5297 10.7384 28.1805 10.3357C25.908 9.65747 23.6302 8.99503 21.3542 8.3285C20.4699 8.06954 19.5299 8.06954 18.6456 8.3285C16.3696 8.99503 14.0918 9.65747 11.8193 10.3357C10.47 10.7384 9.5504 11.9819 9.55393 13.39C9.55747 14.8053 9.5605 16.2206 9.54981 17.6358Z" stroke="white" stroke-width="1.2" stroke-linecap="round" stroke-linejoin="round"/>
</svg>
