<svg width="252" height="188" viewBox="0 0 252 188" fill="none" xmlns="http://www.w3.org/2000/svg">
<path d="M108.867 15.7101C101.867 8.26942 92.2994 1.60077 82.0981 1.60156C69.4825 1.60255 59.5539 10.0704 56.7665 22.2442C48.9256 56.4933 88.3166 66.9579 105.096 90.079C111.672 99.1409 109.455 111.192 98.8067 116.093C92.4882 119.001 84.1136 116.859 80.206 112.354C75.9891 107.492 76.2929 98.2261 83.4554 94.0751M108.867 15.7101L108.874 104.121C108.874 128.851 128.556 148.87 153.073 148.868M108.867 15.7101L197.279 15.7101M153.073 148.868C153.073 163.108 150.487 179.014 136.007 186.399M153.073 148.868C177.59 148.87 197.272 128.851 197.272 104.121L197.279 15.7101M153.073 148.868C153.073 163.108 155.659 179.014 170.139 186.399M136.007 186.399H170.139M136.007 186.399H126.094M197.279 15.7101C204.279 8.26942 213.847 1.60077 224.048 1.60156C236.664 1.60255 246.592 10.0704 249.38 22.2442C257.22 56.4933 217.83 66.9579 201.051 90.079C194.474 99.1409 196.691 111.192 207.339 116.093C213.658 119.001 222.033 116.859 225.94 112.354C230.157 107.492 229.853 98.2261 222.691 94.0751M170.139 186.399H180.053M119.582 117.228C123.804 127.785 132.611 136.014 143.488 139.306" stroke="#071D2B" stroke-width="2.5" stroke-miterlimit="10" stroke-linecap="round" stroke-linejoin="round"/>
<path d="M123.208 40.775C122.964 36.8443 128.012 34.5908 130.972 37.1882C137.431 42.855 146.326 49.3705 153.08 49.37C160.712 49.3694 171.075 46.5956 177.57 44.5905C180.462 43.6976 183.438 45.9781 183.221 48.9974L178.963 108.203C178.178 119.121 169.091 127.579 158.144 127.58L148.222 127.58C137.196 127.581 128.07 119.006 127.386 108.001L123.208 40.775Z" fill="#FFBF00"/>
<path d="M40.6447 70.2541L36.1779 56.3374C35.1777 53.2209 30.8223 53.2209 29.8221 56.3374L25.3553 70.2541C24.2929 73.5642 21.2145 75.8093 17.7381 75.8093H3.34789C0.110918 75.8093 -1.23495 80.0026 1.38381 81.9287L13.1098 90.5532C15.8793 92.5902 17.0377 96.169 15.987 99.4426L11.496 113.435C10.4958 116.551 14.0193 119.143 16.6381 117.217L28.0136 108.85L23.1693 152.559C22.9067 154.928 24.7613 157 27.1449 157H38.8543C41.2379 157 43.0925 154.928 42.83 152.559L37.9856 108.85L49.3619 117.217C51.9807 119.143 55.5042 116.551 54.504 113.435L50.013 99.4426C48.9623 96.169 50.1207 92.5902 52.8902 90.5532L64.6162 81.9287C67.235 80.0026 65.8891 75.8093 62.6521 75.8093H48.2619C44.7855 75.8093 41.7071 73.5642 40.6447 70.2541Z" fill="#D4E7FF"/>
<path d="M65.9986 171.382L23.9206 171.381C19.3251 171.381 15.5996 175.106 15.5996 179.702V183.07C15.5996 184.908 17.0898 186.398 18.9279 186.398H74.3192C76.1574 186.398 77.6475 184.908 77.6475 183.07V179.702C77.6475 176.377 75.6974 173.507 72.8785 172.175M65.9986 171.382L56.3184 171.381M65.9986 171.382C67.8094 171.381 69.327 169.862 69.327 168.054V164.685C69.327 160.09 65.6017 156.364 61.0062 156.364H35.5696C33.7314 156.364 32.2413 154.874 32.2413 153.036V149.668C32.2413 145.072 35.9666 141.347 40.5621 141.347H52.6854C57.2808 141.347 61.0062 145.072 61.0062 149.668V151.462M39.209 141.347L42.5181 99.7979M53.5652 135.421L50.209 93.2819M48.9059 55.965L53.3947 69.7801H67.9207C70.2457 69.7801 71.2123 72.7552 69.3314 74.1218L57.5796 82.66L62.0684 96.4751C62.7868 98.6863 60.2561 100.525 58.3752 99.1584L46.6233 90.6202L34.8715 99.1584C32.9906 100.525 30.4598 98.6863 31.1783 96.4751L35.6671 82.66L23.9152 74.1218C22.0343 72.7552 23.001 69.7801 25.3259 69.7801H39.852L44.3408 55.965C45.0592 53.7539 48.1874 53.7539 48.9059 55.965Z" stroke="#071D2B" stroke-width="2.5" stroke-miterlimit="10" stroke-linecap="round" stroke-linejoin="round"/>
</svg>
