<svg width="252" height="188" viewBox="0 0 252 188" fill="none" xmlns="http://www.w3.org/2000/svg">
<path d="M50.4668 53.6821C50.4668 53.8287 50.5619 71.677 50.4668 84.2775C50.2255 116.211 72.6253 140.547 97.3555 159.704C99.1827 161.12 101.686 161.347 103.613 160.071C104.597 159.42 105.572 158.726 106.699 157.945C108.638 156.598 109.104 153.889 107.652 152.029L93.7907 134.269C83.7533 121.408 77.9623 105.746 77.2197 89.4486L75.054 41.9276C74.7578 35.4277 68.4696 31.0545 62.1753 32.7033C52.8568 35.1443 50.4668 43.1345 50.4668 53.6821Z" fill="#D5F2A5"/>
<path d="M110.414 156.56C78.0887 137.682 58.718 122.389 53.8896 75.7827M40.3105 72.1188C40.4057 59.5183 40.3105 41.6699 40.3105 41.5234C40.3105 30.9757 46.7006 22.9856 56.0191 20.5446L111.126 4.33053C112.969 3.78833 114.929 3.78835 116.772 4.33058L171.875 20.5446C181.194 22.9856 187.584 30.9757 187.584 41.5234C187.584 41.6699 187.489 59.5183 187.584 72.1188C187.584 120.811 158.742 151.598 118.451 173.135C115.637 174.638 112.257 174.638 109.444 173.135C69.1529 151.598 40.3105 120.811 40.3105 72.1188Z" stroke="#071D2B" stroke-width="2.5" stroke-linecap="round" stroke-linejoin="round"/>
<path d="M237.959 13.875V20.7321M237.959 31.0179V37.875M232.816 25.875H225.959M249.959 25.875H243.102" stroke="#071D2B" stroke-width="2.5" stroke-miterlimit="10" stroke-linecap="round" stroke-linejoin="round"/>
<path d="M221.313 149.389C215.242 154.205 208.115 157.512 200.517 159.039C192.919 160.566 185.068 160.27 177.607 158.173" stroke="#D4E7FF" stroke-width="24" stroke-miterlimit="10" stroke-linecap="round" stroke-linejoin="round"/>
<circle cx="188.861" cy="104" r="44" fill="white"/>
<circle cx="200.861" cy="98" r="31" fill="#FFBF00"/>
<path d="M173.361 145.192C156.709 138.923 144.861 122.845 144.861 104C144.861 79.6995 164.561 60 188.861 60C213.162 60 232.861 79.6995 232.861 104C232.861 116.951 227.266 128.595 218.361 136.646" stroke="#071D2B" stroke-width="2.5" stroke-miterlimit="10" stroke-linecap="round" stroke-linejoin="round"/>
<path d="M173.362 146L168.447 178.973C168.315 179.858 169.324 180.457 170.038 179.919L180.374 172.13C181.697 171.133 183.578 171.397 184.575 172.72L192.381 183.079C192.917 183.791 194.046 183.499 194.17 182.617L197.488 159.009C197.611 158.137 198.265 157.435 199.127 157.251V157.251C199.988 157.068 200.872 157.444 201.339 158.19L213.972 178.408C214.444 179.163 215.594 178.971 215.794 178.103L218.712 165.465C219.085 163.85 220.696 162.844 222.31 163.216L234.895 166.122C235.771 166.324 236.448 165.359 235.96 164.605L212.502 128.329C211.811 127.261 210.311 127.104 209.341 127.929C204.283 132.232 197.957 134.812 191.287 135.251C183.792 135.743 176.373 133.498 170.409 128.932C164.445 124.365 160.341 117.789 158.862 110.425C157.382 103.061 158.626 95.4097 162.363 88.894C166.1 82.3783 172.076 77.441 179.18 75C186.283 72.559 194.032 72.7802 200.985 75.6225C207.937 78.4649 213.622 83.735 216.981 90.4534C220.34 97.1717 221.146 104.881 219.248 112.149" stroke="#071D2B" stroke-width="2.5" stroke-linecap="round" stroke-linejoin="round"/>
</svg>
