<svg width="80" height="80" viewBox="0 0 80 80" fill="none" xmlns="http://www.w3.org/2000/svg">
<path d="M62.3149 50.8681V54.3236M62.3149 50.8681C62.3796 49.5587 63.4081 48.5493 64.7243 48.5493C66.0406 48.5493 67.0691 49.5587 67.1338 50.8681V53.0923M62.3149 50.8681C62.2503 49.5587 61.2216 48.5493 59.9054 48.5493C58.5892 48.5493 57.5606 49.5587 57.4959 50.8681M57.496 54.3237L57.4959 50.8681M57.4959 50.8681L57.496 40.9776C57.4322 39.6872 56.398 38.6114 55.0865 38.6114C53.7631 38.6114 52.758 39.6989 52.6298 40.9776V58.3461L47.6691 53.3289C46.6942 52.4734 45.2516 52.4388 44.3148 53.3772C43.4244 54.3279 43.3662 55.7686 44.2675 56.7353L54.614 67.1464C56.5983 68.9456 58.9293 69.8447 61.6062 69.8447C66.7894 69.8447 72 65.4943 72 60.0962V53.0857C72 51.7978 70.8005 50.7262 69.5433 50.7262C68.2253 50.7262 67.1948 51.798 67.1338 53.0923M67.1338 53.0923L67.1338 54.3237M44.724 61.4619C44.0754 61.8332 43.4155 62.2009 42.7451 62.5662C41.7511 63.0724 40.5013 63.0723 39.5074 62.5662C26.4921 55.4751 17.4646 47.4674 17.4646 30.1771C17.4952 26.1285 17.4646 20.3936 17.4646 20.3466C17.4646 16.9575 19.5179 14.3902 22.5122 13.6059C24.4944 13.0867 37.794 9.08654 37.794 9.08654C40.2284 8.36564 42.0169 8.39124 44.4585 9.08654C44.4585 9.08654 57.758 13.0867 59.7402 13.6059C62.7345 14.3902 64.7878 16.9575 64.7878 20.3466C64.7878 20.3936 64.7573 26.1285 64.7878 30.1771C64.7878 36.4329 63.6061 41.4736 61.4812 45.6954M39.8574 65.7685C38.9715 66.2866 38.941 66.3041 38.0128 66.8099C37.0188 67.3161 35.769 67.316 34.7751 66.8099C22.6592 59.313 12.7323 50.3068 12.7323 33.0165C12.7629 28.9679 12.7323 25.126 12.7323 25.0789C12.7323 23.1915 13.3692 21.559 14.4507 20.3473M33.2804 70.5666C32.2864 71.0728 31.0366 71.0728 30.0427 70.5666C18.8504 62.6503 8 52.7838 8 36.8023C8.03056 32.7537 8 29.8582 8 29.8112C8 27.9238 8.63683 26.2912 9.71837 25.0796" stroke="#FF7800" stroke-width="1.5" stroke-linecap="round" stroke-linejoin="round"/>
</svg>
