<svg width="80" height="80" viewBox="0 0 80 80" fill="none" xmlns="http://www.w3.org/2000/svg">
<path d="M25.35 42.25L30.15 45.3C30.983 45.767 31.416 46.35 31.45 47.05M31.45 47.05L31.45 45.1C31.583 44.033 32.183 43.233 33.25 42.7M31.45 47.05L31.45 48.75M31.45 48.75C33.0836 50.7064 34.8433 52 37.45 52C38.9238 52 40.3103 51.582 41.55 50.8M31.45 48.75C30.1778 49.5576 28.8372 50.1 27.3 50.1C25.3 50.1 23.25 49.067 21.85 47.7C17.8525 46.2798 15.7315 41.343 17.85 37.6C16.1187 33.6704 18.7092 28.7141 23 28C23.7004 23.8909 28.3535 21.3489 32.2 22.75C34.4909 18.6721 40.0767 17.9267 43.35 21.2C43.617 21.433 43.85 21.75 44.05 22.15M54.8 45.25C52.733 44.417 50.867 44.55 49.2 45.65L41.55 50.8M41.55 50.8C43.0601 52.3101 44.9102 52.9 47 52.9L51.459 59.27C52.0901 60.1716 53.331 60.3939 54.2359 59.7675L55.2351 59.0757C55.9808 58.5594 56.2858 57.606 55.9781 56.7528L54.3 52.1C55.4443 51.5279 56.33 50.5892 57.05 49.55C60.4536 48.0678 61.9471 44.197 60.9 40.75M39.95 30C38.95 27.4 39.166 25.6 40.6 24.6L42.25 23.3M42.25 23.3C41.317 23.767 40.017 23.767 38.35 23.3M42.25 23.3L44.05 22.15M44.05 22.15C45.8831 20.983 48.2378 20.8345 50.35 21.1C54.5987 21.6708 58.2015 25.1845 58.95 29.4C61.3729 30.5526 63 33.1864 63 35.85C63 37.8381 62.1516 39.3157 60.9 40.75M10 57.1V64C10 67.3137 12.6863 70 16 70H22.85M22.85 10L16 10C12.6863 10 10 12.6863 10 16L10 22.8M57.15 70H64C67.3137 70 70 67.3137 70 64V57.1M56.75 32.95C56.941 35.7265 57.9974 38.2715 60.1 40.1M60.1 40.1C60.3028 40.2414 60.6875 40.5586 60.9 40.75M60.1 40.1C59 39.333 57.633 38.917 56 38.85L51.25 38.6M70 22.8V16C70 12.6863 67.3137 10 64 10L57.15 10" stroke="#FF7800" stroke-width="1.5" stroke-linecap="round" stroke-linejoin="round"/>
</svg>
