<svg width="80" height="80" viewBox="0 0 80 80" fill="none" xmlns="http://www.w3.org/2000/svg">
<path d="M9.89764 34.1667H71.9999M36.6015 47.7778H61.9884M27.8515 42.0417H51.687M2 42.0417H23.1913M31.684 47.7778H8.80546M23.6471 53.6111H16.5833M9.89773 37.7162V27.0704M9.89773 27.0704V22.1805C9.89773 18.8668 12.584 16.1805 15.8977 16.1805L66 16.1805C69.3137 16.1805 72 18.8668 72 22.1805V27.0704M9.89773 27.0704L17.1558 27.0704C17.6296 27.0704 18.0591 26.7915 18.2519 26.3586L19.6063 23.3179C20.249 21.875 21.6806 20.9454 23.2602 20.9454H33.3807C34.9796 20.9454 36.4249 21.8976 37.056 23.3667L38.3349 26.344C38.5242 26.7847 38.9578 27.0704 39.4375 27.0704L72 27.0704M61.944 20.6518V22.5M57.0387 20.6518V22.5M66.8495 20.6518V22.5M72 27.0704V57.8194C72 61.1331 69.3137 63.8194 66 63.8194H15.8977C12.584 63.8194 9.89773 61.1331 9.89773 57.8194V52.2996" stroke="#FF7800" stroke-width="1.5" stroke-linecap="round" stroke-linejoin="round"/>
</svg>
