<svg width="80" height="80" viewBox="0 0 80 80" fill="none" xmlns="http://www.w3.org/2000/svg">
<path d="M66.5892 42.6159L73.0607 59.9397C73.4237 60.9114 72.4662 61.8549 71.5 61.4774L67.2221 59.8063C66.6462 59.5813 65.9937 59.8307 65.7146 60.3824L63.6136 64.5362C63.1422 65.4681 61.7879 65.3948 61.4198 64.4175L58.4611 56.5615M59.4174 47.0844L52.9552 64.3831C52.5907 65.3587 51.2417 65.4387 50.7645 64.513L48.624 60.3606C48.3446 59.8186 47.7033 59.5723 47.133 59.7879L42.8145 61.4206C41.85 61.7852 40.9052 60.844 41.266 59.8782L47.7513 42.5167M44.4001 17.6159C42.5997 17.1443 30.5193 13.5108 30.5193 13.5108C28.3015 12.8792 26.677 12.856 24.4657 13.5108C24.4657 13.5108 12.3854 17.1443 10.5849 17.6159C7.86508 18.3283 6 20.6602 6 23.7386C6 23.7814 6.02776 28.9905 6 32.668C6 48.3732 14.1999 55.6469 26.0221 62.0879C26.9248 62.5476 28.0601 62.5477 28.963 62.0879C32.9398 59.9212 36.5067 57.6603 39.4895 55.016M64.0073 28.8122C64.0073 32.5963 60.9217 35.6262 57.1473 35.6262C53.3904 35.6262 50.3331 32.564 50.3331 28.8122C50.3331 25.0515 53.3749 21.9519 57.1473 21.9519C60.9374 21.9519 64.0073 25.019 64.0073 28.8122ZM71.3328 28.8136C71.3328 36.6095 64.9918 42.9516 57.1948 42.9516C49.4567 42.9516 43.0076 36.5656 43.0076 28.8136C43.0076 21.0463 49.4303 14.6265 57.1948 14.6265C65.0184 14.6265 71.3328 21.0023 71.3328 28.8136Z" stroke="#FF7800" stroke-width="1.5" stroke-linecap="round" stroke-linejoin="round"/>
</svg>
