<svg width="200" height="146" viewBox="0 0 200 146" fill="none" xmlns="http://www.w3.org/2000/svg">
<path opacity="0.8" d="M0.583604 48.4702C1.44254 49.4536 2.43 48.9751 3.4134 48.1162C4.3968 47.2573 5.00374 46.3431 4.1448 45.3597C3.28587 44.3763 1.79236 44.2755 0.808964 45.1344C-0.174433 45.9933 -0.27533 47.4868 0.583604 48.4702Z" fill="#0070F6"/>
<path d="M29.2717 75.7493C27.3984 74.8338 26.2413 76.1496 25.3258 78.0229C24.4103 79.8962 25.0771 80.729 26.9504 81.6445C28.8237 82.56 30.0905 82.6722 31.006 80.7989C31.9215 78.9256 31.145 76.6648 29.2717 75.7493Z" fill="#21455C"/>
<path d="M114.424 33.2496C115.799 34.9628 117.492 34.2275 119.206 32.8523C120.919 31.4771 120.657 30.384 119.282 28.6708C117.906 26.9576 116.749 26.2823 115.036 27.6575C113.323 29.0327 113.049 31.5363 114.424 33.2496Z" fill="#D93511"/>
<path d="M20.5265 132C22.2706 132 23.6844 130.587 23.6844 128.842C23.6844 127.098 22.2706 125.685 20.5265 125.685C18.7825 125.685 17.3687 127.098 17.3687 128.842C17.3687 130.587 18.7825 132 20.5265 132Z" fill="#21455C"/>
<path opacity="0.8" d="M154.737 100.947C154.737 102.112 153.796 103.052 152.632 103.052C151.467 103.052 150.526 102.112 150.526 100.947C150.526 99.7824 151.467 98.8418 152.632 98.8418C153.751 98.8418 154.737 99.7824 154.737 100.947Z" fill="#0070F6"/>
<path opacity="0.64" d="M83.1613 127.374C85.2079 133.07 94.1438 131.356 94.1438 131.356C94.1438 131.356 100.708 128.071 98.6611 122.374C96.6145 116.678 97.0547 114.417 88.5248 115.717C82.541 116.628 81.1147 121.678 83.1613 127.374Z" fill="#9AE437"/>
<path opacity="0.64" d="M53.6325 42.4732C53.6325 44.799 51.7478 46.6837 49.422 46.6837C47.0961 46.6837 45.2114 44.799 45.2114 42.4732C45.2114 40.1474 47.0961 38.2627 49.422 38.2627C51.7478 38.2627 53.6325 40.1474 53.6325 42.4732Z" fill="#FFBF00"/>
<path d="M131.053 40.9475V43.6054M131.053 47.7633V50.4212M128.974 45.6844H126.316M135.79 45.6844H133.132M80.8429 15.0526H94.264M155 100.948H162.105M38.9474 105.684V107.29M38.9474 111.448V113.053M36.8684 109.369H35.2632M42.6316 109.369H41.0263M18.9474 17.2633V18.8712M18.9474 23.0312V24.6317M16.87 20.9475H15.2632M22.6316 20.9475H21.03M122.105 112.526V115.181M122.105 119.341V122M120.03 117.263H117.368M126.842 117.263H124.18M77.8948 14.8949C77.8948 15.6317 77.3158 16.2107 76.579 16.2107C75.8421 16.2107 75.2632 15.6317 75.2632 14.8949C75.2632 14.158 75.8421 13.5791 76.579 13.5791C77.3158 13.5791 77.8948 14.158 77.8948 14.8949ZM87.8159 133.363L79.4191 131.883C78.9008 131.791 78.5592 131.303 78.6506 130.785L79.7199 124.721C79.8113 124.202 80.2991 123.861 80.8174 123.952L89.2142 125.433C89.7325 125.524 90.0741 126.012 89.9827 126.53L88.9134 132.595C88.822 133.113 88.3342 133.455 87.8159 133.363ZM23.5798 128.789C23.5798 130.533 22.1659 131.947 20.4219 131.947C18.6778 131.947 17.264 130.533 17.264 128.789C17.264 127.045 18.6778 125.631 20.4219 125.631C22.1659 125.631 23.5798 127.045 23.5798 128.789ZM154.737 100.948C154.737 102.112 153.796 103.053 152.632 103.053C151.467 103.053 150.526 102.112 150.526 100.948C150.526 99.7829 151.467 98.8423 152.632 98.8423C153.751 98.8423 154.737 99.7829 154.737 100.948ZM170 120.421C170 121.584 169.057 122.526 167.895 122.526C166.732 122.526 165.79 121.584 165.79 120.421C165.79 119.258 166.732 118.316 167.895 118.316C169.057 118.316 170 119.258 170 120.421ZM181.053 116.211C181.053 118.523 179.155 120.421 176.842 120.421C174.529 120.421 172.632 118.523 172.632 116.211C172.632 113.898 174.529 112 176.842 112C179.155 112 181.053 113.898 181.053 116.211ZM53.6325 42.4737C53.6325 44.7995 51.7477 46.6842 49.4219 46.6842C47.0961 46.6842 45.2114 44.7995 45.2114 42.4737C45.2114 40.1478 47.0961 38.2631 49.4219 38.2631C51.7477 38.2631 53.6325 40.1478 53.6325 42.4737Z" stroke="#E1EAF0" stroke-width="1.5" stroke-miterlimit="10" stroke-linecap="round" stroke-linejoin="round"/>
<path d="M81.0529 78.5825C83.2108 79.1608 85.1591 80.1239 86.2118 82.1743C87.5603 84.83 86.4549 87.542 84.2996 89.114M81.0529 78.5825C84.632 77.7106 87.2679 74.1841 85.5802 70.608C84.1065 67.4536 80.2644 66.6124 77.1592 66.0866C67.2005 64.2359 49.2013 63.2369 45.4749 74.9717C44.3218 78.5552 45.1787 82.2427 47.3427 85.0227M81.0529 78.5825C80.6442 78.6821 80.2253 78.7486 79.8094 78.8105M86.8369 104.003C86.5342 104.495 86.1454 104.946 85.6855 105.362M86.8369 104.003C88.1946 101.801 87.6247 97.9485 85.041 96.8425M86.8369 104.003C94.6479 100.926 103.5 102.048 111.738 101.732C119.001 101.311 126.686 100.102 133.159 96.8424C150.264 88.2203 155.58 66.4021 150.58 49.0527C142.406 20.6378 115.522 1 86.0539 1C58.3099 1 32.8019 17.8466 21.6855 43.1644C13.9845 60.6081 13.3624 80.9533 19.9487 98.8402C30.2118 126.494 57.5276 145.211 87.3697 145.211C112.001 145.211 129.896 129.649 149.843 117.557C164.422 108.695 183.449 100.753 199.213 110.397M84.2996 89.114C86.3887 90.5053 87.3348 93.142 86.0539 95.4229C85.7554 95.9392 85.4157 96.4113 85.041 96.8425M84.2996 89.114C83.3061 89.8387 82.1751 90.2127 80.9835 90.4491M47.3427 85.0227C47.8455 85.6686 48.4188 86.2655 49.0539 86.8008C52.1026 89.3816 56.3043 90.2286 60.3213 90.6033C65.1968 91.058 70.1599 91.1138 75.0579 91.0216M47.3427 85.0227C43.8449 89.2532 45.7582 96.0484 50.3792 98.5162M85.041 96.8425C84.6563 97.2852 84.2349 97.6847 83.7836 98.0447M50.3792 98.5162C52.9412 99.8845 56.1471 100.331 58.9487 100.68C64.8199 101.421 71.0035 101.667 76.8782 100.781M50.3792 98.5162C48.212 101.042 49.2004 104.741 51.8434 106.569C55.896 109.355 61.0013 109.881 65.8434 109.986C68.2092 110.037 73.9808 109.817 78.9805 108.509M76.8782 100.781C75.615 99.2036 75.2644 96.0538 76.896 94.2138C78.3171 92.584 81.1065 92.3211 82.5276 93.9509C83.4305 95.0219 84.0048 96.6394 83.7836 98.0447M76.8782 100.781C79.364 100.406 81.8481 99.5887 83.7836 98.0447M78.9805 108.509C77.8226 107.037 77.4223 104.36 78.7381 102.626C80.0013 100.996 82.6329 100.47 84.1066 101.837C84.9487 102.678 85.6329 104.048 85.6855 105.362M78.9805 108.509C81.6459 107.811 84.0919 106.803 85.6855 105.362M74.0458 79.0799C72.6742 77.0849 72.4162 73.9754 74.3171 72.1852C75.896 70.7131 78.6855 70.6605 79.9486 72.3955C81.368 74.3064 81.2899 76.9964 79.8094 78.8105M74.0458 79.0799C75.9686 79.1293 77.8954 79.0951 79.8094 78.8105M74.0458 79.0799C67.0988 78.9017 59.3208 79.4718 52.896 76.5489C43.5346 72.3476 45.8051 62.1857 54.7381 59.252C61.7907 56.9913 69.1065 58.884 76.317 58.7789C78.7381 58.7263 83.2644 59.0417 84.4223 56.3605C85.2644 54.2575 84.0013 51.4711 83.4749 49.4733C82.5276 45.9508 82.2118 42.1655 82.7907 38.5379C83.5531 33.7991 87.1005 28.3743 92.2644 27.7602C96.6855 27.1819 98.7907 30.5466 98.6328 34.4897C98.4223 40.0625 98.5276 45.7931 100.264 51.2082C101.264 54.3101 102.633 57.3594 104.896 59.7252C109.949 64.9826 117.58 64.562 124.37 64.562C130.453 64.562 140.93 64.7508 149.803 63.7423M75.0579 91.0216C73.5201 89.1894 73.4666 86.0118 75.1066 84.2247C76.5802 82.6475 79.3697 82.4898 80.7381 84.1721C82.0804 85.8482 82.4584 88.736 80.9835 90.4491M75.0579 91.0216C77.034 90.9844 78.9865 90.8452 80.9835 90.4491" stroke="#E1EAF0" stroke-width="1.5" stroke-miterlimit="10" stroke-linecap="round" stroke-linejoin="round"/>
</svg>
