<svg width="98" height="98" viewBox="0 0 98 98" fill="none" xmlns="http://www.w3.org/2000/svg">
<rect width="98" height="98" rx="22" fill="#FF7800"/>
<path d="M22.8748 43.0845C22.8413 47.5328 23.4924 51.7934 24.4521 55.2397C27.3129 65.5126 36.3266 72.6582 45.43 77.7401C47.6494 78.979 50.3506 78.979 52.5701 77.7401C61.6735 72.6582 70.6871 65.5126 73.5479 55.2397C74.5076 51.7934 75.1588 47.5328 75.1252 43.0845C75.0985 39.5466 75.106 36.0083 75.1149 32.4701C75.1237 28.9499 72.8247 25.8412 69.4515 24.8344C63.7702 23.1388 58.0757 21.4827 52.3858 19.8164C50.1751 19.169 47.8249 19.169 45.6142 19.8164C39.9243 21.4827 34.2298 23.1388 28.5485 24.8344C25.1753 25.8412 22.8763 28.9499 22.8851 32.4701C22.894 36.0083 22.9015 39.5466 22.8748 43.0845Z" fill="white" stroke="white" stroke-width="2.6" stroke-linecap="round" stroke-linejoin="round"/>
<path d="M54.692 46.6914L60.2886 42.5814C60.5383 42.3918 60.4023 41.9649 60.0851 41.9649H53.2165C52.384 41.9649 52.0322 41.6719 51.7919 40.886L49.655 34.2585C49.5252 33.9983 48.9239 33.9305 48.8409 34.2585L46.704 40.886C46.42 41.6313 46.0999 41.9649 45.2794 41.9649H38.4108C38.0508 41.9649 37.918 42.3634 38.2072 42.5814L43.753 46.6914C44.3702 47.1275 44.5563 47.619 44.2618 48.3355L42.1249 54.9629C42.0635 55.2768 42.3964 55.5927 42.6846 55.3739L48.2812 51.2639C48.9407 50.8411 49.5191 50.8098 50.1638 51.2639L55.8113 55.3739C56.0697 55.6349 56.4351 55.2568 56.3201 54.9629L54.1832 48.3355C53.9422 47.6036 54.0582 47.1379 54.692 46.6914Z" stroke="#FF7800" stroke-width="2.6" stroke-linecap="round" stroke-linejoin="round"/>
</svg>
