<svg width="98" height="98" viewBox="0 0 98 98" fill="none" xmlns="http://www.w3.org/2000/svg">
<rect width="98" height="98" rx="22" fill="#FF7800"/>
<path d="M22.8748 43.0845C22.8413 47.5328 23.4924 51.7934 24.4521 55.2397C27.3129 65.5126 36.3266 72.6582 45.43 77.7401C47.6494 78.979 50.3506 78.979 52.5701 77.7401C61.6735 72.6582 70.6871 65.5126 73.5479 55.2397C74.5076 51.7934 75.1588 47.5328 75.1252 43.0845C75.0985 39.5466 75.106 36.0083 75.1149 32.4701C75.1237 28.9499 72.8247 25.8412 69.4515 24.8344C63.7702 23.1388 58.0757 21.4827 52.3858 19.8164C50.1751 19.169 47.8249 19.169 45.6142 19.8164C39.9243 21.4827 34.2298 23.1388 28.5485 24.8344C25.1753 25.8412 22.8763 28.9499 22.8851 32.4701C22.894 36.0083 22.9015 39.5466 22.8748 43.0845Z" fill="white" stroke="white" stroke-width="2.6" stroke-linecap="round" stroke-linejoin="round"/>
<path d="M46.1602 56.2246C44.648 57.7367 42.1963 57.7367 40.6842 56.2246C39.172 54.7124 39.172 52.2607 40.6842 50.7486L46.16 45.2727M51.8397 39.593C53.3519 38.0808 55.8036 38.0808 57.3158 39.593C58.8279 41.1051 58.8279 43.5568 57.3158 45.069L51.8411 50.5437M57.3158 50.7486C58.8279 52.2607 58.8279 54.7124 57.3158 56.2246C55.8036 57.7367 53.3519 57.7367 51.8397 56.2246L46.3635 50.7483M40.6842 45.069C39.172 43.5568 39.172 41.1051 40.6842 39.593C42.1963 38.0808 44.648 38.0808 46.1602 39.593L51.6344 45.0672" stroke="#FF7800" stroke-width="2.6" stroke-linecap="round" stroke-linejoin="round"/>
</svg>
